HIERARCHY
ROOT Hips
{
	OFFSET 0.000000 0.000000 0.000000 
	CHANNELS 6 Xposition Yposition Zposition Zrotation Yrotation Xrotation
	JOINT LeftUpLeg
	{
		OFFSET 1.363060 -1.794630 0.839290 
		CHANNELS 3 Zrotation Yrotation Xrotation
		JOINT LeftLeg
		{
			OFFSET 2.448110 -6.726130 0.000000 
			CHANNELS 3 Zrotation Yrotation Xrotation
			JOINT LeftFoot
			{
				OFFSET 2.562200 -7.039590 0.000000 
				CHANNELS 3 Zrotation Yrotation Xrotation
				JOINT LeftToeBase
				{
					OFFSET 0.157640 -0.433110 2.322550 
					CHANNELS 3 Zrotation Yrotation Xrotation
					End Site
					{
						OFFSET 0.000000 0.000000 0.000000 
					}
				}
			}
		}
	}
	JOINT RightUpLeg
	{
		OFFSET -1.305520 -1.794630 0.839290 
		CHANNELS 3 Zrotation Yrotation Xrotation
		JOINT RightLeg
		{
			OFFSET -2.542530 -6.985550 0.000000 
			CHANNELS 3 Zrotation Yrotation Xrotation
			JOINT RightFoot
			{
				OFFSET -2.568260 -7.056230 0.000000 
				CHANNELS 3 Zrotation Yrotation Xrotation
				JOINT RightToeBase
				{
					OFFSET -0.164730 -0.452590 2.363150 
					CHANNELS 3 Zrotation Yrotation Xrotation
					End Site
					{
						OFFSET 0.000000 0.000000 0.000000 
					}
				}
			}
		}
	}
	JOINT Spine
	{
		OFFSET 0.028270 2.035590 -0.193380 
		CHANNELS 3 Zrotation Yrotation Xrotation
		JOINT Spine1
		{
			OFFSET 0.056720 2.048850 -0.042750 
			CHANNELS 3 Zrotation Yrotation Xrotation
			JOINT Neck1
			{
				OFFSET -0.054170 1.746240 0.172020 
				CHANNELS 3 Zrotation Yrotation Xrotation
				JOINT Head
				{
					OFFSET 0.104070 1.761360 -0.123970 
					CHANNELS 3 Zrotation Yrotation Xrotation
					End Site
					{
						OFFSET 0.000000 0.000000 0.000000 
					}
				}
			}
			JOINT LeftArm
			{
				OFFSET 3.362410 1.200890 -0.311210 
				CHANNELS 3 Zrotation Yrotation Xrotation
				JOINT LeftForeArm
				{
					OFFSET 4.983000 -0.000000 -0.000000 
					CHANNELS 3 Zrotation Yrotation Xrotation
					JOINT LeftHand
					{
						OFFSET 3.483560 -0.000000 -0.000000 
						CHANNELS 3 Zrotation Yrotation Xrotation
						JOINT LeftHandIndex1
						{
							OFFSET 0.715260 -0.000000 -0.000000 
							CHANNELS 3 Zrotation Yrotation Xrotation
							End Site
							{
								OFFSET 0.000000 0.000000 0.000000 
							}
						}
					}
				}
			}
			JOINT RightArm
			{
				OFFSET -3.136600 1.374050 -0.404650 
				CHANNELS 3 Zrotation Yrotation Xrotation
				JOINT RightForeArm
				{
					OFFSET -5.241900 -0.000000 -0.000000 
					CHANNELS 3 Zrotation Yrotation Xrotation
					JOINT RightHand
					{
						OFFSET -3.444170 -0.000000 -0.000000 
						CHANNELS 3 Zrotation Yrotation Xrotation
						JOINT RightHandIndex1
						{
							OFFSET -0.622530 -0.000000 -0.000000 
							CHANNELS 3 Zrotation Yrotation Xrotation
							End Site
							{
								OFFSET 0.000000 0.000000 0.000000 
							}
						}
					}
				}
			}
		}
	}
}
MOTION
Frames: 13
Frame Time: 0.041667
-10.434889 17.565705 -16.012642 -106.223720 85.641661 -106.459482 -10.222443 -19.418160 0.949785 -1.380032 8.072429 22.002093 -0.237162 7.878728 -18.217509 0.410000 -4.110500 -11.387800 23.264032 -7.057861 9.423498 1.913873 -0.847272 3.454902 0.449139 -9.641421 -9.453374 -0.053800 1.497400 -4.118500 0.663111 -0.274730 -0.967413 0.401699 -0.428049 -1.874638 5.143166 -5.172603 17.235279 2.368600 -2.429300 13.973500 -93.220024 1.675446 11.735423 10.014209 -21.107046 -3.343699 -0.344490 1.910441 -13.356533 -7.125000 0.000000 0.000000 85.866240 -3.496781 19.264967 -16.327563 28.371586 -4.181997 0.140260 -1.993212 21.034121 7.125000 0.000000 0.000000 
-10.428535 17.563946 -16.011469 -106.570531 85.608964 -106.851835 -10.148355 -19.166789 0.871703 -1.350403 8.087035 22.070736 -0.201659 7.609295 -18.042984 0.404700 -4.084000 -11.313200 23.293810 -7.111087 9.496026 1.916328 -0.847714 3.459145 0.448543 -9.644775 -9.483568 -0.054600 1.508100 -4.148000 0.655325 -0.241535 -0.960400 0.322509 -0.413159 -1.876783 5.081353 -5.207551 17.255269 2.316700 -2.441300 13.988300 -93.113171 1.635820 12.418571 10.349098 -21.496311 -3.428664 -0.369162 1.912138 -13.782438 -7.125000 0.000000 0.000000 85.858136 -3.609247 19.483589 -16.314058 28.361495 -4.171075 0.151551 -1.993918 20.813732 7.125000 0.000000 0.000000 
-10.422572 17.561698 -16.009905 -107.004168 85.585337 -107.328249 -10.075553 -18.891697 0.789137 -1.324161 8.092987 22.115828 -0.170574 7.350217 -17.844857 0.407800 -4.099600 -11.357000 23.313732 -7.169226 9.575171 1.918520 -0.847635 3.463990 0.447408 -9.644137 -9.524467 -0.055300 1.517000 -4.172500 0.651594 -0.210077 -0.954460 0.257099 -0.399525 -1.876933 5.029365 -5.234809 17.290245 2.271600 -2.448800 14.015900 -93.003617 1.574298 13.057493 10.680694 -21.878119 -3.516838 -0.392358 1.913743 -14.173958 -7.125000 0.000000 0.000000 85.883139 -3.697069 19.574151 -16.273906 28.317222 -4.142739 0.159947 -1.986449 20.765808 7.125000 0.000000 0.000000 
-10.416707 17.559156 -16.008536 -107.545787 85.581989 -107.907723 -10.025670 -18.631866 0.711628 -1.302395 8.096527 22.149390 -0.146431 7.133828 -17.660228 0.422100 -4.169900 -11.555200 23.308744 -7.227092 9.654507 1.919547 -0.846415 3.469305 0.444805 -9.630150 -9.578958 -0.053900 1.498300 -4.121000 0.655768 -0.188989 -0.951970 0.217726 -0.391173 -1.875750 4.992392 -5.236973 17.335073 2.241100 -2.446200 14.049300 -92.916464 1.496726 13.585812 11.005992 -22.249131 -3.607716 -0.412722 1.915810 -14.513590 -7.125000 0.000000 0.000000 85.962189 -3.720505 19.390171 -16.149799 28.181340 -4.085630 0.157565 -1.972473 21.043001 7.125000 0.000000 0.000000 
-10.411037 17.556615 -16.007754 -108.199573 85.602556 -108.592272 -10.009613 -18.406670 0.654475 -1.288275 8.094710 22.161811 -0.132231 6.982463 -17.499029 0.449000 -4.298900 -11.919000 23.272160 -7.280700 9.728956 1.918911 -0.843809 3.474874 0.440574 -9.598568 -9.644689 -0.049800 1.440600 -3.962000 0.669285 -0.185548 -0.954235 0.210575 -0.392009 -1.874096 4.964074 -5.202435 17.384066 2.224600 -2.430300 14.080800 -92.869425 1.411223 13.969252 11.324706 -22.608724 -3.700152 -0.429938 1.918555 -14.800788 -7.125000 0.000000 0.000000 86.068509 -3.693355 19.006481 -15.955898 27.972592 -4.012584 0.144224 -1.958099 21.554213 7.125000 0.000000 0.000000 
-10.405270 17.554659 -16.007852 -108.933534 85.643829 -109.354046 -10.027474 -18.220855 0.622070 -1.281179 8.088703 22.156578 -0.127346 6.893088 -17.362165 0.486500 -4.472400 -12.409800 23.207080 -7.327606 9.796384 1.916669 -0.839938 3.480445 0.435039 -9.552157 -9.713917 -0.043800 1.350900 -3.714900 0.690969 -0.204162 -0.961204 0.233866 -0.404098 -1.873280 4.931844 -5.130548 17.430715 2.214400 -2.401800 14.103200 -92.865085 1.327459 14.219169 11.638309 -22.958520 -3.792395 -0.444861 1.921756 -15.052399 -7.125000 0.000000 0.000000 86.148396 -3.665938 18.652343 -15.756766 27.762736 -3.949101 0.126026 -1.950511 22.044405 7.125000 0.000000 0.000000 
-10.399307 17.553095 -16.008927 -109.657727 85.696468 -110.108230 -10.070265 -18.068690 0.612788 -1.278582 8.080957 22.142569 -0.128366 6.845775 -17.245385 0.529500 -4.663100 -12.950200 23.124624 -7.366669 9.858465 1.913379 -0.835167 3.485823 0.428980 -9.498736 -9.777005 -0.037300 1.247100 -3.429000 0.717727 -0.242945 -0.971496 0.278543 -0.426070 -1.874027 4.886189 -5.033215 17.468968 2.201500 -2.365300 14.112300 -92.888749 1.253401 14.387340 11.949708 -23.301875 -3.883293 -0.459162 1.924861 -15.294066 -7.125000 0.000000 0.000000 86.158362 -3.689270 18.558483 -15.621142 27.625941 -3.916148 0.111110 -1.953631 22.262951 7.125000 0.000000 0.000000 
-10.393247 17.552118 -16.010785 -110.242389 85.750965 -110.726982 -10.125985 -17.940670 0.621064 -1.277422 8.074249 22.129482 -0.131068 6.817161 -17.147354 0.571300 -4.840800 -13.454900 23.038004 -7.396353 9.918927 1.909806 -0.829877 3.490859 0.423640 -9.447252 -9.826623 -0.031600 1.147900 -3.155800 0.745145 -0.293439 -0.983142 0.329874 -0.453279 -1.876688 4.827350 -4.931454 17.494780 2.180700 -2.327700 14.108200 -92.913340 1.193866 14.546923 12.260039 -23.640582 -3.972136 -0.474487 1.927203 -15.549577 -7.125000 0.000000 0.000000 86.092877 -3.781812 18.810197 -15.580603 27.594511 -3.917139 0.105508 -1.965264 22.119631 7.125000 0.000000 0.000000 
-10.387088 17.551238 -16.012837 -110.554925 85.801083 -111.077347 -10.184584 -17.827746 0.640181 -1.275922 8.070782 22.124167 -0.132222 6.790886 -17.070373 0.607000 -4.986900 -13.871100 22.956857 -7.415165 9.980939 1.906565 -0.824330 3.495465 0.419370 -9.403960 -9.859937 -0.027300 1.066800 -2.932600 0.768711 -0.342483 -0.994257 0.372164 -0.478451 -1.881302 4.767660 -4.848006 17.507595 2.154300 -2.296400 14.095400 -92.911279 1.148195 14.764638 12.567267 -23.974071 -4.059164 -0.491551 1.928346 -15.830171 -7.125000 0.000000 0.000000 85.987988 -3.921277 19.300215 -15.617349 27.644734 -3.938494 0.110342 -1.978457 21.730478 7.125000 0.000000 0.000000 
-10.381028 17.550261 -16.014793 -110.516684 85.845125 -111.078249 -10.239460 -17.720884 0.662277 -1.273373 8.071322 22.128602 -0.130882 6.761642 -17.016831 0.636200 -5.103300 -14.203300 22.886236 -7.421516 10.044406 1.904002 -0.818712 3.499516 0.416519 -9.371916 -9.878214 -0.024600 1.012300 -2.782600 0.785264 -0.376150 -1.004147 0.394404 -0.494744 -1.887731 4.725742 -4.798916 17.510927 2.131200 -2.276300 14.081200 -92.866581 1.110685 15.074399 12.865684 -24.297417 -4.144391 -0.509711 1.928287 -16.129264 -7.125000 0.000000 0.000000 85.900078 -4.061063 19.803696 -15.679908 27.717762 -3.958078 0.121825 -1.985976 21.331666 7.125000 0.000000 0.000000 
-10.375261 17.549185 -16.016357 -110.219408 85.884306 -110.817348 -10.286580 -17.612790 0.678067 -1.269896 8.074878 22.139815 -0.127648 6.730124 -16.981104 0.663100 -5.207800 -14.502100 22.826749 -7.418398 10.106039 1.902135 -0.813300 3.502963 0.414997 -9.351035 -9.885798 -0.023500 0.988800 -2.718100 0.794171 -0.387396 -1.013291 0.394128 -0.498872 -1.896647 4.717500 -4.788605 17.510674 2.122200 -2.269300 14.073400 -92.782649 1.073013 15.466720 13.147323 -24.603271 -4.227750 -0.527186 1.927512 -16.426093 -7.125000 0.000000 0.000000 85.874335 -4.159402 20.114402 -15.716447 27.757042 -3.958845 0.133681 -1.984281 21.132405 7.125000 0.000000 0.000000 
-10.370471 17.548012 -16.017236 -109.681078 85.920196 -110.305595 -10.322609 -17.494315 0.678620 -1.266175 8.079741 22.152587 -0.124187 6.699815 -16.952728 0.691900 -5.317700 -14.817000 22.778660 -7.404327 10.159740 1.900937 -0.808250 3.505544 0.414590 -9.340976 -9.885559 -0.024000 1.000300 -2.749600 0.798248 -0.373340 -1.023653 0.378930 -0.489600 -1.910873 4.746446 -4.807975 17.513304 2.133600 -2.273200 14.077000 -92.681575 1.027196 15.892745 13.404251 -24.882804 -4.307568 -0.541841 1.926810 -16.692492 -7.125000 0.000000 0.000000 85.919470 -4.201433 20.151048 -15.703467 27.739933 -3.938117 0.140525 -1.974747 21.202574 7.125000 0.000000 0.000000 
-10.366952 17.546839 -16.017627 -109.151637 85.951960 -109.797567 -10.343910 -17.362413 0.661310 -1.261933 8.083527 22.162295 -0.120439 6.661655 -16.913045 0.722900 -5.433100 -15.147900 22.741915 -7.389408 10.204198 1.900247 -0.804005 3.507536 0.414687 -9.337606 -9.883847 -0.025900 1.038400 -2.854400 0.803602 -0.345077 -1.036446 0.366227 -0.473626 -1.932977 4.801369 -4.839606 17.523256 2.164000 -2.283200 14.093000 -92.594681 0.968783 16.284825 13.629775 -25.128531 -4.381379 -0.552020 1.926938 -16.903697 -7.125000 0.000000 0.000000 86.005690 -4.202508 19.980199 -15.654881 27.684137 -3.907539 0.139869 -1.962367 21.456270 7.125000 0.000000 0.000000 
